<?xml version="1.0" encoding="UTF-8"?> <!-- Generator: Adobe Illustrator 16.0.0, SVG Export Plug-In . SVG Version: 6.00 Build 0) --> <svg xmlns="http://www.w3.org/2000/svg" xmlns:xlink="http://www.w3.org/1999/xlink" version="1.1" id="Capa_1" x="0px" y="0px" width="473.031px" height="473.031px" viewBox="0 0 473.031 473.031" style="enable-background:new 0 0 473.031 473.031;" xml:space="preserve"> <g> <g> <path d="M190.444,230.819c2.599,0,4.919-1.056,6.534-2.971c1.814-2.151,2.499-5.17,1.928-8.5l-5.7-33.24 c-0.327-1.91,0.794-5.362,2.182-6.715l24.147-23.538c3.038-2.961,4.151-6.596,3.054-9.973c-1.097-3.376-4.134-5.663-8.333-6.273 l-33.37-4.85c-1.919-0.279-4.855-2.412-5.713-4.15l-14.924-30.236c-1.877-3.805-4.991-5.987-8.542-5.987 c-3.551,0-6.665,2.183-8.542,5.987l-14.924,30.237c-0.857,1.737-3.793,3.87-5.711,4.149l-33.372,4.85 c-4.199,0.61-7.236,2.897-8.333,6.274c-1.097,3.376,0.017,7.011,3.055,9.973l24.147,23.537c1.388,1.353,2.51,4.804,2.182,6.714 l-5.701,33.24c-0.571,3.331,0.113,6.35,1.927,8.501c2.702,3.206,7.408,3.898,11.893,1.54l29.849-15.693 c0.627-0.329,1.884-0.682,3.53-0.682s2.903,0.353,3.53,0.682l29.847,15.693C186.89,230.338,188.693,230.819,190.444,230.819z M151.708,201.013c-3.351,0-6.587,0.731-9.114,2.061l-25.41,13.359l4.854-28.297c0.992-5.786-1.43-13.239-5.633-17.337 l-20.556-20.036l28.409-4.129c5.81-0.845,12.149-5.452,14.746-10.715l12.705-25.74l12.705,25.74 c2.597,5.264,8.937,9.87,14.747,10.715l28.408,4.129L187.013,170.8c-4.203,4.097-6.625,11.549-5.633,17.335l4.853,28.298 l-25.409-13.359C158.295,201.745,155.058,201.013,151.708,201.013z"></path> <path d="M356.191,230.819c2.6,0,4.919-1.056,6.534-2.971c1.814-2.151,2.499-5.171,1.927-8.501l-5.702-33.24 c-0.327-1.91,0.795-5.361,2.183-6.714l24.147-23.538c3.038-2.961,4.151-6.596,3.055-9.973c-1.098-3.376-4.135-5.663-8.333-6.273 l-33.369-4.85c-1.919-0.279-4.855-2.412-5.713-4.15l-14.924-30.236c-1.878-3.805-4.991-5.987-8.542-5.987 s-6.664,2.183-8.542,5.987l-14.924,30.235c-0.857,1.738-3.794,3.872-5.712,4.151l-33.372,4.85 c-4.199,0.61-7.236,2.897-8.333,6.274c-1.097,3.376,0.018,7.011,3.055,9.973l24.147,23.537c1.388,1.353,2.51,4.804,2.182,6.714 l-5.7,33.24c-0.571,3.331,0.112,6.35,1.927,8.501c2.703,3.206,7.406,3.898,11.894,1.54l29.848-15.693 c0.627-0.329,1.884-0.682,3.53-0.682c1.646,0,2.902,0.353,3.529,0.682l29.85,15.693 C352.639,230.338,354.441,230.819,356.191,230.819z M317.454,201.013c-3.352,0-6.588,0.731-9.115,2.061l-25.408,13.359 l4.853-28.297c0.992-5.786-1.43-13.239-5.633-17.337l-20.556-20.036l28.409-4.129c5.809-0.845,12.147-5.451,14.746-10.715 l12.705-25.74l12.704,25.74c2.598,5.264,8.938,9.87,14.748,10.715l28.407,4.129L352.759,170.8 c-4.204,4.097-6.625,11.55-5.633,17.336l4.854,28.297l-25.41-13.359C324.041,201.745,320.805,201.013,317.454,201.013z"></path> <path d="M133.843,287.44l-33.372-4.853c-1.917-0.278-4.853-2.412-5.711-4.149L79.836,248.2c-1.878-3.803-4.991-5.984-8.542-5.984 c-3.551,0-6.664,2.182-8.542,5.986l-14.923,30.234c-0.858,1.739-3.794,3.873-5.712,4.151L8.746,287.44 c-4.198,0.608-7.236,2.896-8.333,6.271c-1.098,3.378,0.016,7.014,3.054,9.977l24.147,23.535c1.388,1.354,2.51,4.807,2.182,6.717 l-5.7,33.232c-0.571,3.331,0.113,6.352,1.928,8.502c2.703,3.205,7.409,3.898,11.893,1.54l29.847-15.69 c0.627-0.33,1.884-0.683,3.53-0.683s2.903,0.353,3.53,0.683l29.847,15.69c1.805,0.949,3.608,1.431,5.358,1.431 c2.599,0,4.92-1.056,6.535-2.972c1.814-2.151,2.499-5.171,1.927-8.5l-5.699-33.233c-0.328-1.91,0.794-5.363,2.182-6.715 l24.148-23.539c3.038-2.963,4.151-6.599,3.053-9.976C141.077,290.336,138.04,288.049,133.843,287.44z M106.597,318.633 c-4.203,4.099-6.624,11.552-5.632,17.336l4.852,28.292l-25.409-13.357c-2.527-1.328-5.764-2.061-9.114-2.061 c-3.35,0-6.587,0.73-9.114,2.061L36.771,364.26l4.853-28.291c0.992-5.786-1.429-13.239-5.633-17.338l-20.558-20.037l28.409-4.131 c5.809-0.843,12.149-5.449,14.748-10.716l12.704-25.738l12.705,25.74c2.599,5.265,8.939,9.871,14.747,10.714l28.41,4.131 L106.597,318.633z"></path> <path d="M299.064,287.44l-33.372-4.853c-1.917-0.278-4.853-2.412-5.711-4.149L245.058,248.2c-1.878-3.803-4.991-5.984-8.542-5.984 c-3.551,0-6.664,2.182-8.542,5.986l-14.923,30.234c-0.858,1.739-3.794,3.873-5.712,4.151l-33.371,4.853 c-4.198,0.608-7.236,2.896-8.333,6.271c-1.098,3.378,0.016,7.014,3.054,9.977l24.147,23.535c1.388,1.354,2.51,4.807,2.182,6.717 l-5.7,33.232c-0.571,3.331,0.113,6.35,1.927,8.502c2.703,3.205,7.405,3.898,11.893,1.54l29.847-15.69 c0.627-0.33,1.885-0.683,3.532-0.683c1.646,0,2.902,0.353,3.529,0.683l29.848,15.69c1.805,0.949,3.607,1.431,5.357,1.431 c2.6,0,4.921-1.056,6.535-2.972c1.814-2.151,2.499-5.171,1.928-8.501l-5.7-33.232c-0.328-1.91,0.794-5.363,2.182-6.715 l24.147-23.537c3.039-2.963,4.151-6.599,3.054-9.977C306.3,290.336,303.262,288.049,299.064,287.44z M271.818,318.633 c-4.203,4.099-6.625,11.551-5.632,17.337l4.852,28.291l-25.408-13.357c-2.526-1.328-5.764-2.061-9.114-2.061 s-6.587,0.73-9.115,2.061l-25.409,13.357l4.853-28.291c0.992-5.786-1.429-13.238-5.633-17.338l-20.558-20.037l28.409-4.131 c5.809-0.844,12.149-5.449,14.748-10.715l12.704-25.74l12.706,25.741c2.599,5.265,8.938,9.87,14.747,10.714l28.41,4.131 L271.818,318.633z"></path> <path d="M469.564,303.687c3.038-2.961,4.151-6.597,3.054-9.975c-1.098-3.377-4.135-5.663-8.333-6.271l-33.372-4.853 c-1.918-0.278-4.854-2.412-5.712-4.149L410.278,248.2c-1.878-3.803-4.992-5.985-8.542-5.985c-3.551,0-6.664,2.183-8.542,5.987 l-14.924,30.236c-0.857,1.737-3.794,3.871-5.713,4.149l-33.369,4.853c-4.198,0.608-7.234,2.896-8.333,6.271 c-1.098,3.377,0.015,7.013,3.054,9.978l24.146,23.535c1.388,1.354,2.51,4.807,2.183,6.717l-5.7,33.232 c-0.57,3.331,0.113,6.35,1.929,8.502c1.615,1.915,3.936,2.971,6.535,2.971c1.75,0,3.553-0.48,5.357-1.431l29.848-15.69 c0.627-0.33,1.883-0.683,3.528-0.683c1.647,0,2.905,0.353,3.531,0.683l29.849,15.691c4.486,2.355,9.19,1.665,11.893-1.542 c1.813-2.151,2.499-5.17,1.927-8.501l-5.7-33.232c-0.328-1.91,0.794-5.363,2.183-6.716L469.564,303.687z M437.041,318.633 c-4.204,4.099-6.625,11.551-5.634,17.337l4.854,28.291l-25.41-13.357c-2.527-1.328-5.764-2.061-9.114-2.061 c-3.35,0-6.587,0.732-9.112,2.061l-25.409,13.357l4.852-28.291c0.992-5.785-1.429-13.238-5.633-17.338l-20.557-20.038l28.407-4.13 c5.811-0.844,12.15-5.45,14.748-10.715l12.705-25.74l12.705,25.741c2.6,5.265,8.939,9.87,14.747,10.714l28.411,4.131 L437.041,318.633z"></path> </g> </g> <g> </g> <g> </g> <g> </g> <g> </g> <g> </g> <g> </g> <g> </g> <g> </g> <g> </g> <g> </g> <g> </g> <g> </g> <g> </g> <g> </g> <g> </g> </svg> 