<?xml version="1.0" encoding="utf-8"?>
<!-- Generator: Adobe Illustrator 16.0.3, SVG Export Plug-In . SVG Version: 6.00 Build 0)  -->
<!DOCTYPE svg PUBLIC "-//W3C//DTD SVG 1.1//EN" "http://www.w3.org/Graphics/SVG/1.1/DTD/svg11.dtd">
<svg version="1.1" id="Capa_1" xmlns="http://www.w3.org/2000/svg" xmlns:xlink="http://www.w3.org/1999/xlink" x="0px" y="0px"
	 width="352.334px" height="73.615px" viewBox="0 0 352.334 73.615" enable-background="new 0 0 352.334 73.615"
	 xml:space="preserve">
<g display="none">
	<polygon display="inline" points="123.719,31.027 123.719,33.714 132.151,33.714 132.151,36.696 123.719,36.696 123.719,39.389 
		120.936,39.389 120.936,31.027 	"/>
	<polygon display="inline" points="120.936,10.601 132.149,10.601 132.149,13.57 127.928,13.57 127.928,16.903 132.149,16.903 
		132.149,19.878 120.936,19.878 120.936,16.903 125.145,16.903 125.145,13.57 120.936,13.57 	"/>
	<polygon display="inline" points="123.705,-3.492 125.27,-3.492 125.27,-7.053 127.754,-7.053 127.754,-3.492 129.36,-3.492 
		129.36,-7.819 132.149,-7.819 132.149,-0.549 120.936,-0.549 120.936,-7.819 123.705,-7.819 	"/>
</g>
<g>
	<linearGradient id="SVGID_1_" gradientUnits="userSpaceOnUse" x1="9.4736" y1="18.1978" x2="23.2266" y2="18.1978">
		<stop  offset="0" style="stop-color:#3C3C3B"/>
		<stop  offset="1" style="stop-color:#575756"/>
	</linearGradient>
	<polygon fill="url(#SVGID_1_)" points="9.474,9.612 23.227,26.784 23.227,9.664 	"/>
	<linearGradient id="SVGID_2_" gradientUnits="userSpaceOnUse" x1="31.0322" y1="55.4214" x2="44.7803" y2="55.4214">
		<stop  offset="0" style="stop-color:#3C3C3B"/>
		<stop  offset="1" style="stop-color:#575756"/>
	</linearGradient>
	<polygon fill="url(#SVGID_2_)" points="31.032,63.95 31.118,46.893 44.78,63.95 	"/>
	<linearGradient id="SVGID_3_" gradientUnits="userSpaceOnUse" x1="31.0322" y1="31.542" x2="44.5596" y2="31.542">
		<stop  offset="0" style="stop-color:#000000"/>
		<stop  offset="1" style="stop-color:#3C3C3B"/>
	</linearGradient>
	<polygon fill="url(#SVGID_3_)" stroke="#000000" stroke-miterlimit="10" points="31.118,9.665 44.56,9.665 44.56,53.419 
		31.032,36.975 	"/>
	<linearGradient id="SVGID_4_" gradientUnits="userSpaceOnUse" x1="9.6992" y1="42.0513" x2="23.2266" y2="42.0513">
		<stop  offset="0" style="stop-color:#000000"/>
		<stop  offset="1" style="stop-color:#3C3C3B"/>
	</linearGradient>
	<polygon fill="url(#SVGID_4_)" stroke="#000000" stroke-miterlimit="10" points="9.699,63.95 9.699,20.154 23.227,37.042 
		23.14,63.95 	"/>
	<path fill="#E62D3C" stroke="#000000" stroke-width="2" stroke-miterlimit="10" d="M2.893,71.755h48.476V1.859H2.893V71.755z
		 M23.14,9.665v17.011L9.516,9.665H23.14z M9.699,63.95V20.154l13.44,16.781V63.95H9.699z M31.119,63.95V46.892L44.78,63.95H31.119z
		 M44.561,53.419L31.119,36.636V9.665h13.441V53.419z"/>
</g>
<g>
	<linearGradient id="SVGID_5_" gradientUnits="userSpaceOnUse" x1="190.4385" y1="36.8311" x2="220.6504" y2="36.8311">
		<stop  offset="0" style="stop-color:#000000"/>
		<stop  offset="1" style="stop-color:#3C3C3B"/>
	</linearGradient>
	<path fill="url(#SVGID_5_)" stroke="#000000" stroke-miterlimit="10" d="M220.65,44.575c0,6.289-5.277,12.134-13.245,12.134
		h-16.967V16.954h13.07c7.202,0,12.479,4.856,12.479,10.332c0,4.095-2.709,7.031-4.338,7.031
		C215.887,34.317,220.65,38.582,220.65,44.575 M203.189,26.129h-2.591v6.239h2.515c2.295,0,4.019-1.134,4.019-3.18
		C207.135,27.262,205.456,26.129,203.189,26.129 M210.537,43.319c0-2.318-1.679-3.724-4.662-3.724l-5.276-0.024v7.547h5.203
		C208.22,47.118,210.537,45.932,210.537,43.319"/>
	<linearGradient id="SVGID_6_" gradientUnits="userSpaceOnUse" x1="225.1377" y1="36.8311" x2="258.7266" y2="36.8311">
		<stop  offset="0" style="stop-color:#000000"/>
		<stop  offset="1" style="stop-color:#3C3C3B"/>
	</linearGradient>
	<path fill="url(#SVGID_6_)" stroke="#000000" stroke-miterlimit="10" d="M246.371,56.708l-10.629-17.263v17.263h-10.556
		l-0.049-39.755h15.091c8.584,0,14.727,5.795,14.727,12.924c0,4.957-2.984,9.099-6.882,10.875l10.653,15.956H246.371z
		 M235.692,34.416l4.315,0.024c2.245,0.025,4.291-1.555,4.291-3.995c0-2.468-2.072-3.994-4.291-3.994h-4.315V34.416z"/>
	<linearGradient id="SVGID_7_" gradientUnits="userSpaceOnUse" x1="260.7969" y1="36.8071" x2="304.4473" y2="36.8071">
		<stop  offset="0" style="stop-color:#000000"/>
		<stop  offset="1" style="stop-color:#3C3C3B"/>
	</linearGradient>
	<path fill="url(#SVGID_7_)" stroke="#000000" stroke-miterlimit="10" d="M260.797,36.883c0-11.938,9.47-20.989,21.827-20.989
		c12.354,0,21.823,9.052,21.823,20.989c0,11.838-9.469,20.837-21.849,20.837C270.245,57.72,260.797,48.721,260.797,36.883
		 M293.771,36.808c0-6.141-4.833-10.876-11.146-10.876c-6.313,0-11.147,4.735-11.147,10.876c0,6.116,4.834,10.826,11.147,10.826
		C288.937,47.634,293.771,42.924,293.771,36.808"/>
	<linearGradient id="SVGID_8_" gradientUnits="userSpaceOnUse" x1="307.5576" y1="36.8066" x2="337.0557" y2="36.8066">
		<stop  offset="0" style="stop-color:#000000"/>
		<stop  offset="1" style="stop-color:#3C3C3B"/>
	</linearGradient>
	<path fill="url(#SVGID_8_)" stroke="#000000" stroke-miterlimit="10" d="M307.558,49.979l6.389-6.266
		c1.652,2.443,4.734,3.921,8.065,3.921c2.245,0,4.438-0.815,4.438-2.441c0-2.048-4.066-3.849-7.967-5.575
		c-5.03-2.171-9.345-5.474-9.345-11.469c0-6.88,6.536-11.787,14.081-11.787c6.066,0,10.802,2.859,12.355,6.782l-6.093,5.87
		c-1.184-2.098-4.239-3.01-6.141-3.01c-2.171,0-3.724,1.11-3.724,2.467c0,1.824,2.812,2.418,7.104,4.217
		c6.216,2.615,10.335,6.413,10.335,12.281c0,7.572-7.056,12.282-15.021,12.282C315.502,57.251,309.555,54.367,307.558,49.979"/>
	<g>
		<path fill="#010202" d="M79.021,56.542H67.686V27.303H58.35V16.667h29.981v10.636h-9.311V56.542z M68.672,55.555h9.362V26.317
			h9.313v-8.663H59.336v8.663h9.336V55.555z"/>
		<path fill="#010202" d="M103.047,56.541H91.736V16.668h11.311V56.541z M92.723,55.554h9.339V17.653h-9.339V55.554z"/>
		<path fill="#010202" d="M143.403,56.925h-3.972l-19.305-18.698v18.338h-11.313V16.282h4.021l19.233,18.628V16.62h11.334V56.925z
			 M139.83,55.941h2.589V17.606h-9.363v19.63l-20.618-19.968h-2.639v38.31h9.341V35.899L139.83,55.941z"/>
		<path fill="#010202" d="M167.479,56.542h-11.333V27.303h-9.334V16.667h29.979v10.636h-9.313V56.542z M157.132,55.555h9.362V26.317
			h9.313v-8.663h-28.01v8.663h9.335V55.555z"/>
		<linearGradient id="SVGID_9_" gradientUnits="userSpaceOnUse" x1="73.3413" y1="56.0493" x2="73.3413" y2="17.1602">
			<stop  offset="0" style="stop-color:#000000"/>
			<stop  offset="1" style="stop-color:#3C3C3B"/>
		</linearGradient>
		<polygon fill="url(#SVGID_9_)" stroke="#000000" stroke-miterlimit="10" points="87.839,26.81 78.526,26.81 78.526,56.049 
			68.179,56.049 68.179,26.81 58.844,26.81 58.844,17.16 87.839,17.16 		"/>
		<linearGradient id="SVGID_10_" gradientUnits="userSpaceOnUse" x1="97.3921" y1="56.0454" x2="97.3921" y2="17.1611">
			<stop  offset="0" style="stop-color:#000000"/>
			<stop  offset="1" style="stop-color:#3C3C3B"/>
		</linearGradient>
		<rect x="92.229" y="17.161" fill="url(#SVGID_10_)" stroke="#000000" stroke-miterlimit="10" width="10.325" height="38.885"/>
		<linearGradient id="SVGID_11_" gradientUnits="userSpaceOnUse" x1="126.1089" y1="56.4331" x2="126.1089" y2="16.7744">
			<stop  offset="0" style="stop-color:#000000"/>
			<stop  offset="1" style="stop-color:#3C3C3B"/>
		</linearGradient>
		<polygon fill="url(#SVGID_11_)" stroke="#000000" stroke-miterlimit="10" points="142.911,17.113 142.911,56.433 139.631,56.433 
			119.633,37.062 119.633,56.073 109.307,56.073 109.307,16.774 112.637,16.774 132.562,36.073 132.562,17.113 		"/>
		<linearGradient id="SVGID_12_" gradientUnits="userSpaceOnUse" x1="161.8008" y1="56.0493" x2="161.8008" y2="17.1602">
			<stop  offset="0" style="stop-color:#000000"/>
			<stop  offset="1" style="stop-color:#3C3C3B"/>
		</linearGradient>
		<polygon fill="url(#SVGID_12_)" stroke="#000000" stroke-miterlimit="10" points="176.299,26.81 166.987,26.81 166.987,56.049 
			156.64,56.049 156.64,26.81 147.303,26.81 147.303,17.16 176.299,17.16 		"/>
	</g>
	<g>
		<path d="M337.796,51.82h4.411l0.133,1.217h-0.206c-0.04-0.29-0.146-0.505-0.317-0.646c-0.171-0.14-0.458-0.208-0.856-0.208h-0.456
			v3.507c0,0.34,0.041,0.557,0.122,0.646c0.08,0.091,0.255,0.143,0.521,0.155v0.218h-2.266v-0.218
			c0.263-0.023,0.429-0.079,0.499-0.167c0.071-0.087,0.106-0.297,0.106-0.627v-3.514h-0.46c-0.384,0-0.656,0.063-0.818,0.19
			c-0.162,0.126-0.272,0.349-0.333,0.663h-0.207L337.796,51.82z M344.491,51.82l1.654,3.465l1.605-3.465h1.69v0.224
			c-0.227,0.004-0.377,0.024-0.451,0.066c-0.075,0.04-0.131,0.104-0.167,0.193c-0.037,0.088-0.054,0.274-0.054,0.558v2.836
			c0,0.344,0.037,0.558,0.114,0.643c0.078,0.085,0.264,0.135,0.558,0.151v0.218h-2.411v-0.218c0.238-0.004,0.398-0.028,0.481-0.074
			c0.083-0.043,0.144-0.107,0.182-0.192c0.039-0.085,0.058-0.26,0.058-0.521v-2.981l-1.86,3.986h-0.193l-1.866-3.933v2.921
			c0,0.274,0.018,0.454,0.052,0.535c0.034,0.085,0.089,0.146,0.163,0.192c0.075,0.044,0.191,0.066,0.349,0.066h0.219v0.218h-1.854
			v-0.218c0.226,0,0.379-0.021,0.457-0.062s0.136-0.103,0.173-0.188c0.035-0.084,0.055-0.267,0.055-0.545v-2.823
			c0-0.307-0.017-0.501-0.052-0.582c-0.034-0.08-0.092-0.143-0.174-0.186c-0.079-0.042-0.233-0.063-0.459-0.063V51.82H344.491z"/>
	</g>
</g>
</svg>
